<svg width="157.88" height="28.92" viewBox="0 0 157.88 28.92" xmlns="http://www.w3.org/2000/svg"><g id="svgGroup" stroke-linecap="round" fill-rule="evenodd" font-size="9pt" stroke="#000" stroke-width="0.25mm" fill="black" style="stroke:#000;stroke-width:0.25mm;fill:black"><path d="M 66.24 28.4 L 66.24 25.28 A 6.609 6.609 0 0 1 61.504 28.67 A 10.109 10.109 0 0 1 59.6 28.84 A 12.546 12.546 0 0 1 57.504 28.677 Q 55.187 28.283 53.9 26.94 Q 52.08 25.04 52.08 21.36 L 52.08 8.36 L 52.84 8.36 L 52.84 21.36 Q 52.84 23.591 53.58 25.101 A 5.218 5.218 0 0 0 54.4 26.32 A 4.595 4.595 0 0 0 56.164 27.496 Q 56.902 27.785 57.826 27.92 A 12.262 12.262 0 0 0 59.6 28.04 A 8.3 8.3 0 0 0 61.833 27.754 A 6.406 6.406 0 0 0 64.36 26.4 Q 66.24 24.76 66.24 22 L 66.24 8.36 L 67 8.36 L 67 28.4 L 66.24 28.4 Z M 99.48 23.04 L 99.48 14.84 A 8.34 8.34 0 0 1 99.73 12.74 A 5.791 5.791 0 0 1 101.5 9.8 A 6.905 6.905 0 0 1 104.667 8.222 A 10.064 10.064 0 0 1 106.84 8 A 9.957 9.957 0 0 1 108.939 8.208 Q 110.796 8.608 112.02 9.78 A 5.844 5.844 0 0 1 113.68 12.795 A 8.748 8.748 0 0 1 113.88 14.72 L 113.88 18.52 L 100.24 19.2 L 100.24 23.12 A 6.13 6.13 0 0 0 100.421 24.653 A 4.148 4.148 0 0 0 101.84 26.9 A 5.626 5.626 0 0 0 104.181 28.01 Q 105.014 28.199 105.985 28.2 A 10.089 10.089 0 0 0 106 28.2 Q 107.52 28.2 109.2 27.72 A 15.234 15.234 0 0 0 112.084 26.557 A 17.208 17.208 0 0 0 112.52 26.32 L 112.88 27 A 10.912 10.912 0 0 1 110.523 28.123 A 13.003 13.003 0 0 1 109.6 28.4 Q 107.76 28.88 105.92 28.88 Q 103.515 28.88 101.916 27.916 A 5.479 5.479 0 0 1 101.22 27.42 Q 99.562 26.028 99.484 23.311 A 9.463 9.463 0 0 1 99.48 23.04 Z M 135.2 21.2 L 135.2 16.08 Q 135.2 12.12 137.28 10.06 Q 139.36 8 142.64 8 A 11.662 11.662 0 0 1 146.037 8.525 A 15.07 15.07 0 0 1 148 9.28 L 147.72 10.08 A 12.605 12.605 0 0 0 145.347 9.133 A 9.706 9.706 0 0 0 142.72 8.76 A 7.78 7.78 0 0 0 140.357 9.105 A 6.415 6.415 0 0 0 137.88 10.56 A 5.749 5.749 0 0 0 136.302 13.203 Q 135.96 14.372 135.96 15.84 L 135.96 21.64 A 10.903 10.903 0 0 0 135.96 21.77 Q 135.96 25.03 137.94 26.54 A 7.245 7.245 0 0 0 140.713 27.816 Q 141.835 28.08 143.16 28.08 Q 145.52 28.08 147.88 27.4 L 148.08 28.16 Q 145.6 28.8 143.28 28.8 A 16.074 16.074 0 0 1 141.769 28.733 Q 141.033 28.663 140.405 28.521 A 7.654 7.654 0 0 1 139.68 28.32 A 8.213 8.213 0 0 1 138.108 27.608 Q 137.116 27.017 136.487 26.186 A 4.982 4.982 0 0 1 136.26 25.86 A 5.893 5.893 0 0 1 135.584 24.324 Q 135.368 23.582 135.274 22.686 A 14.208 14.208 0 0 1 135.2 21.2 Z M 0 21.64 L 0 18.32 A 7.789 7.789 0 0 1 0.244 16.301 A 4.895 4.895 0 0 1 2.92 13.04 Q 4.44 12.32 6.64 12.32 A 15.263 15.263 0 0 1 9.771 12.656 A 18.003 18.003 0 0 1 10.86 12.92 A 15.23 15.23 0 0 1 12.984 13.669 A 11.78 11.78 0 0 1 14.64 14.56 A 6.303 6.303 0 0 0 14.297 12.442 A 5.455 5.455 0 0 0 12.94 10.34 A 4.549 4.549 0 0 0 11.403 9.382 Q 9.729 8.724 7.009 8.8 A 20.776 20.776 0 0 0 7 8.8 L 7.08 8.04 A 19.247 19.247 0 0 1 9.081 8.137 Q 11.105 8.349 12.356 9.028 A 4.823 4.823 0 0 1 12.74 9.26 Q 14.341 10.333 14.858 11.761 A 4.054 4.054 0 0 1 14.98 12.16 A 12.056 12.056 0 0 1 15.228 13.491 Q 15.4 14.789 15.4 16.48 L 15.4 28.4 Q 11.422 28.805 9.479 28.837 A 19.357 19.357 0 0 1 9.16 28.84 A 18.387 18.387 0 0 1 6.533 28.664 Q 5.18 28.468 4.067 28.055 A 8.579 8.579 0 0 1 2.48 27.28 A 4.922 4.922 0 0 1 0.426 24.587 Q 0.127 23.703 0.038 22.605 A 11.981 11.981 0 0 1 0 21.64 Z M 116.92 21.64 L 116.92 18.32 A 7.789 7.789 0 0 1 117.164 16.301 A 4.895 4.895 0 0 1 119.84 13.04 Q 121.36 12.32 123.56 12.32 A 15.263 15.263 0 0 1 126.691 12.656 A 18.003 18.003 0 0 1 127.78 12.92 A 15.23 15.23 0 0 1 129.904 13.669 A 11.78 11.78 0 0 1 131.56 14.56 A 6.303 6.303 0 0 0 131.217 12.442 A 5.455 5.455 0 0 0 129.86 10.34 A 4.549 4.549 0 0 0 128.323 9.382 Q 126.649 8.724 123.929 8.8 A 20.776 20.776 0 0 0 123.92 8.8 L 124 8.04 A 19.247 19.247 0 0 1 126.001 8.137 Q 128.025 8.349 129.276 9.028 A 4.823 4.823 0 0 1 129.66 9.26 Q 131.261 10.333 131.778 11.761 A 4.054 4.054 0 0 1 131.9 12.16 A 12.056 12.056 0 0 1 132.148 13.491 Q 132.32 14.789 132.32 16.48 L 132.32 28.4 Q 128.342 28.805 126.399 28.837 A 19.357 19.357 0 0 1 126.08 28.84 A 18.387 18.387 0 0 1 123.453 28.664 Q 122.1 28.468 120.987 28.055 A 8.579 8.579 0 0 1 119.4 27.28 A 4.922 4.922 0 0 1 117.346 24.587 Q 117.047 23.703 116.958 22.605 A 11.981 11.981 0 0 1 116.92 21.64 Z M 41.76 28.4 L 41.76 6.44 Q 41.76 4.309 42.453 2.903 A 4.56 4.56 0 0 1 43.44 1.56 A 5.792 5.792 0 0 1 47.18 0.012 A 7.571 7.571 0 0 1 47.6 0 Q 48.36 0 49.08 0.12 L 48.96 0.8 Q 48.24 0.72 47.88 0.72 A 6.217 6.217 0 0 0 46.011 0.989 A 5.08 5.08 0 0 0 44.04 2.14 Q 42.732 3.362 42.55 5.667 A 9.821 9.821 0 0 0 42.52 6.44 L 42.52 8.36 L 48.56 8.36 L 48.24 9.12 L 42.52 9.12 L 42.52 28.4 L 41.76 28.4 Z M 30.68 23.12 L 30.68 0.4 L 31.44 0.4 L 31.44 8.36 L 37.72 8.36 L 37.36 9.12 L 31.44 9.12 L 31.44 23.12 A 9.021 9.021 0 0 0 31.516 24.331 Q 31.6 24.951 31.778 25.453 A 3.552 3.552 0 0 0 32.3 26.44 A 4.012 4.012 0 0 0 33.229 27.3 Q 34.004 27.83 35.16 28.2 L 34.92 28.92 A 8.187 8.187 0 0 1 33.534 28.394 Q 32.787 28.024 32.25 27.525 A 4.249 4.249 0 0 1 31.68 26.88 Q 30.842 25.706 30.706 23.856 A 10.099 10.099 0 0 1 30.68 23.12 Z M 150.84 23.12 L 150.84 0.4 L 151.6 0.4 L 151.6 8.36 L 157.88 8.36 L 157.52 9.12 L 151.6 9.12 L 151.6 23.12 A 9.021 9.021 0 0 0 151.676 24.331 Q 151.76 24.951 151.938 25.453 A 3.552 3.552 0 0 0 152.46 26.44 A 4.012 4.012 0 0 0 153.389 27.3 Q 154.164 27.83 155.32 28.2 L 155.08 28.92 A 8.187 8.187 0 0 1 153.694 28.394 Q 152.947 28.024 152.41 27.525 A 4.249 4.249 0 0 1 151.84 26.88 Q 151.002 25.706 150.866 23.856 A 10.099 10.099 0 0 1 150.84 23.12 Z M 19.28 28.4 L 19.28 8.36 L 20.04 8.36 L 20.04 10.48 A 7.701 7.701 0 0 1 24.531 8.174 A 10.981 10.981 0 0 1 26.28 8.04 Q 27.76 8.04 29.28 8.36 L 29.04 9.2 Q 27.68 8.8 26.24 8.8 A 9.496 9.496 0 0 0 24.195 9.013 A 8.168 8.168 0 0 0 23.14 9.32 A 7.652 7.652 0 0 0 22.046 9.816 Q 21.366 10.194 20.88 10.68 A 3.479 3.479 0 0 0 20.411 11.253 Q 20.15 11.658 20.073 12.08 A 1.992 1.992 0 0 0 20.04 12.44 L 20.04 28.4 L 19.28 28.4 Z M 89.16 28.4 L 89.16 8.36 L 89.92 8.36 L 89.92 10.48 A 7.701 7.701 0 0 1 94.411 8.174 A 10.981 10.981 0 0 1 96.16 8.04 Q 97.64 8.04 99.16 8.36 L 98.92 9.2 Q 97.56 8.8 96.12 8.8 A 9.496 9.496 0 0 0 94.075 9.013 A 8.168 8.168 0 0 0 93.02 9.32 A 7.652 7.652 0 0 0 91.926 9.816 Q 91.246 10.194 90.76 10.68 A 3.479 3.479 0 0 0 90.291 11.253 Q 90.03 11.658 89.953 12.08 A 1.992 1.992 0 0 0 89.92 12.44 L 89.92 28.4 L 89.16 28.4 Z M 71.64 28.4 L 71.64 0.4 L 72.4 0.4 L 72.4 28.4 L 71.64 28.4 Z M 0.76 18.44 L 0.76 21.92 A 8.248 8.248 0 0 0 0.938 23.692 Q 1.178 24.784 1.745 25.576 A 4.297 4.297 0 0 0 3 26.74 A 8.3 8.3 0 0 0 5.175 27.659 Q 6.202 27.94 7.428 28.05 A 18.543 18.543 0 0 0 9.08 28.12 Q 10.559 28.12 12.56 27.921 A 67.07 67.07 0 0 0 14.64 27.68 L 14.64 15.48 Q 13.526 14.684 11.854 14.066 A 19.494 19.494 0 0 0 10.96 13.76 A 15.913 15.913 0 0 0 8.459 13.178 A 12.913 12.913 0 0 0 6.6 13.04 Q 4.216 13.04 2.656 14.116 A 5.291 5.291 0 0 0 2.38 14.32 A 3.975 3.975 0 0 0 1.071 16.254 Q 0.848 16.932 0.785 17.765 A 9 9 0 0 0 0.76 18.44 Z M 117.68 18.44 L 117.68 21.92 A 8.248 8.248 0 0 0 117.858 23.692 Q 118.098 24.784 118.665 25.576 A 4.297 4.297 0 0 0 119.92 26.74 A 8.3 8.3 0 0 0 122.095 27.659 Q 123.122 27.94 124.348 28.05 A 18.543 18.543 0 0 0 126 28.12 Q 127.479 28.12 129.48 27.921 A 67.07 67.07 0 0 0 131.56 27.68 L 131.56 15.48 Q 130.446 14.684 128.774 14.066 A 19.494 19.494 0 0 0 127.88 13.76 A 15.913 15.913 0 0 0 125.379 13.178 A 12.913 12.913 0 0 0 123.52 13.04 Q 121.136 13.04 119.576 14.116 A 5.291 5.291 0 0 0 119.3 14.32 A 3.975 3.975 0 0 0 117.991 16.254 Q 117.768 16.932 117.705 17.765 A 9 9 0 0 0 117.68 18.44 Z M 100.24 14.8 L 100.24 18.48 L 113.12 17.76 L 113.12 14.68 A 8.438 8.438 0 0 0 112.965 13.002 Q 112.768 12.032 112.321 11.302 A 4.091 4.091 0 0 0 111.26 10.14 Q 109.4 8.76 106.8 8.76 Q 104.12 8.76 102.18 10.22 Q 100.326 11.616 100.244 14.529 A 9.691 9.691 0 0 0 100.24 14.8 Z" vector-effect="non-scaling-stroke"/></g></svg>
